<svg width="116" height="117" viewBox="0 0 116 117" fill="none" xmlns="http://www.w3.org/2000/svg">
<path d="M58.6289 52.2511H115.182C115.182 58.0689 114.937 63.3578 114.464 68.0989C113.973 72.84 113.01 77.26 111.556 81.3211C109.516 87.0444 106.758 92.1067 103.263 96.5078C99.7689 100.928 95.67 104.592 90.9856 107.558C86.2822 110.523 81.1256 112.771 75.4967 114.32C69.8678 115.869 63.9556 116.643 57.76 116.643C49.2222 116.643 41.4589 115.246 34.4322 112.431C27.4056 109.617 21.38 105.669 16.3367 100.588C11.2934 95.5067 7.36447 89.3867 4.56891 82.2655C1.75447 75.1444 0.356689 67.2678 0.356689 58.6356C0.356689 50.1167 1.73558 42.2778 4.49335 35.1567C7.25113 28.0356 11.18 21.9533 16.2611 16.91C21.3422 11.8667 27.4811 7.93776 34.6589 5.14221C41.8367 2.32776 49.8267 0.929993 58.6478 0.929993C70.0756 0.929993 80.1056 3.40443 88.7378 8.33443C97.37 13.2833 104.189 20.9333 109.232 31.3033L82.2022 42.5044C79.69 36.4978 76.4034 32.1911 72.3989 29.5655C68.3756 26.94 63.8045 25.6367 58.6667 25.6367C54.3978 25.6367 50.5256 26.43 47.0311 28.0355C43.5367 29.6411 40.5711 31.9078 38.0967 34.8733C35.6222 37.8389 33.6767 41.39 32.2789 45.5644C30.8811 49.7389 30.1634 54.3855 30.1634 59.5233C30.1634 64.17 30.7678 68.4956 31.9767 72.4622C33.1856 76.4289 34.9989 79.8667 37.4356 82.7756C39.8534 85.6844 42.8567 87.9322 46.4456 89.5378C50.0345 91.1433 54.19 91.9367 58.95 91.9367C61.7645 91.9367 64.4656 91.6156 67.0911 90.9922C69.7167 90.3689 72.0589 89.3489 74.1367 87.9322C76.2145 86.5344 77.9333 84.7022 79.2934 82.4733C80.6534 80.2444 81.56 77.5244 82.0511 74.3322H58.6289V52.2511Z" fill="url(#paint0_linear_1517_16)"/>
<defs>
<linearGradient id="paint0_linear_1517_16" x1="57.7491" y1="0.930748" x2="57.7491" y2="116.643" gradientUnits="userSpaceOnUse">
<stop stop-color="#FF5110"/>
<stop offset="1" stop-color="#ED1C24"/>
</linearGradient>
</defs>
</svg>
