<svg width="116" height="117" viewBox="0 0 116 117" fill="none" xmlns="http://www.w3.org/2000/svg">
<path d="M58.84 51.7656H115.393C115.393 57.5833 115.148 62.8722 114.676 67.6133C114.184 72.3545 113.221 76.7745 111.767 80.8356C109.727 86.5589 106.969 91.6211 103.474 96.0222C99.98 100.442 95.8811 104.107 91.1967 107.072C86.4933 110.038 81.3366 112.286 75.7077 113.834C70.0789 115.383 64.1667 116.158 57.9711 116.158C49.4333 116.158 41.67 114.76 34.6433 111.946C27.6167 109.131 21.5911 105.183 16.5478 100.102C11.5045 95.0211 7.57555 88.9011 4.77999 81.78C1.96555 74.6589 0.567749 66.7822 0.567749 58.15C0.567749 49.6311 1.94664 41.7922 4.70442 34.6711C7.4622 27.55 11.3911 21.4678 16.4722 16.4245C21.5533 11.3811 27.6922 7.47113 34.87 4.65669C42.0478 1.84224 50.0378 0.444458 58.8589 0.444458C70.2867 0.444458 80.3167 2.9189 88.9489 7.8489C97.5811 12.7978 104.4 20.4478 109.443 30.8178L82.4133 42.0189C79.9011 36.0122 76.6144 31.7056 72.61 29.08C68.5867 26.4545 64.0156 25.1511 58.8778 25.1511C54.6089 25.1511 50.7367 25.9445 47.2422 27.55C43.7478 29.1556 40.7822 31.4222 38.3078 34.3878C35.8333 37.3534 33.8878 40.9045 32.49 45.0789C31.0922 49.2534 30.3744 53.9 30.3744 59.0378C30.3744 63.6845 30.9789 68.01 32.1878 71.9767C33.3967 75.9433 35.21 79.3811 37.6466 82.29C40.0644 85.1989 43.0678 87.4467 46.6567 89.0522C50.2456 90.6578 54.4011 91.4511 59.1611 91.4511C61.9756 91.4511 64.6767 91.13 67.3022 90.5067C69.9278 89.8833 72.27 88.8633 74.3478 87.4467C76.4256 86.0489 78.1444 84.2167 79.5044 81.9878C80.8644 79.7589 81.7711 77.0389 82.2622 73.8467H58.8589V51.7656H58.84Z" fill="url(#paint0_linear_1517_10)"/>
<defs>
<linearGradient id="paint0_linear_1517_10" x1="57.9605" y1="0.444458" x2="57.9605" y2="116.156" gradientUnits="userSpaceOnUse">
<stop stop-color="#FF5110"/>
<stop offset="1" stop-color="#ED1C24"/>
</linearGradient>
</defs>
</svg>
