<svg width="122" height="117" viewBox="0 0 122 117" fill="none" xmlns="http://www.w3.org/2000/svg">
<path d="M0.427734 58.5233C0.427734 50.3822 1.91996 42.8078 4.94218 35.7811C7.94551 28.7545 12.1199 22.6345 17.4466 17.3834C22.7733 12.1511 29.1388 8.05224 36.5622 5.10557C43.9855 2.15891 52.1455 0.666687 61.0611 0.666687C69.8822 0.666687 78.0233 2.14002 85.4844 5.10557C92.9455 8.07113 99.3677 12.1511 104.751 17.3834C110.134 22.6156 114.328 28.7545 117.331 35.7811C120.334 42.8078 121.845 50.3822 121.845 58.5233C121.845 66.6645 120.334 74.2389 117.331 81.2656C114.328 88.2922 110.134 94.4123 104.751 99.6634C99.3677 104.896 92.9455 108.994 85.4844 111.941C78.0233 114.888 69.8822 116.38 61.0611 116.38C52.1455 116.38 43.9855 114.907 36.5622 111.941C29.1388 108.994 22.7733 104.896 17.4466 99.6634C12.1199 94.4311 7.94551 88.3111 4.94218 81.2656C1.93884 74.2389 0.427734 66.6645 0.427734 58.5233ZM30.2344 58.5233C30.2344 62.8867 31.0655 66.91 32.7088 70.5934C34.3522 74.2767 36.5811 77.4689 39.3955 80.1889C42.2099 82.9089 45.4777 85.0056 49.1988 86.5167C52.9199 88.0278 56.8866 88.7645 61.0422 88.7645C65.2166 88.7645 69.1644 88.0089 72.8855 86.5167C76.6066 85.0245 79.9122 82.9089 82.7644 80.1889C85.6166 77.4689 87.8833 74.2767 89.5266 70.5934C91.17 66.91 92.0011 62.8867 92.0011 58.5233C92.0011 54.16 91.17 50.1367 89.5266 46.4534C87.8833 42.77 85.6166 39.5778 82.7644 36.8578C79.9122 34.1378 76.6066 32.0411 72.8855 30.53C69.1455 29.0378 65.1978 28.2822 61.0422 28.2822C56.8678 28.2822 52.9199 29.0378 49.1988 30.53C45.4588 32.0411 42.1911 34.1378 39.3955 36.8578C36.5811 39.5778 34.3522 42.77 32.7088 46.4534C31.0655 50.1367 30.2344 54.16 30.2344 58.5233Z" fill="url(#paint0_linear_1517_14)"/>
<defs>
<linearGradient id="paint0_linear_1517_14" x1="61.1247" y1="0.666687" x2="61.1247" y2="116.379" gradientUnits="userSpaceOnUse">
<stop stop-color="#FF5110"/>
<stop offset="1" stop-color="#ED1C24"/>
</linearGradient>
</defs>
</svg>
