<svg width="122" height="117" viewBox="0 0 122 117" fill="none" xmlns="http://www.w3.org/2000/svg">
<path d="M0.438904 58.5644C0.438904 50.4233 1.93112 42.8489 4.95335 35.8222C7.95668 28.7955 12.1311 22.6755 17.4578 17.4244C22.7845 12.1922 29.15 8.09332 36.5733 5.14665C43.9967 2.19998 52.1567 0.707764 61.0722 0.707764C69.8933 0.707764 78.0345 2.18109 85.4956 5.14665C92.9567 8.11221 99.3789 12.1922 104.762 17.4244C110.146 22.6567 114.339 28.7955 117.342 35.8222C120.346 42.8489 121.857 50.4233 121.857 58.5644C121.857 66.7056 120.346 74.28 117.342 81.3066C114.339 88.3333 110.146 94.4533 104.762 99.7044C99.3789 104.937 92.9567 109.036 85.4956 111.982C78.0345 114.929 69.8933 116.421 61.0722 116.421C52.1567 116.421 43.9967 114.948 36.5733 111.982C29.15 109.036 22.7845 104.937 17.4578 99.7044C12.1311 94.4722 7.95668 88.3522 4.95335 81.3066C1.95001 74.28 0.438904 66.7056 0.438904 58.5644ZM30.2456 58.5644C30.2456 62.9278 31.0767 66.9511 32.72 70.6344C34.3633 74.3178 36.5922 77.51 39.4067 80.23C42.2211 82.95 45.4889 85.0466 49.21 86.5578C52.9311 88.0689 56.8978 88.8055 61.0533 88.8055C65.2278 88.8055 69.1756 88.05 72.8967 86.5578C76.6178 85.0655 79.9233 82.95 82.7756 80.23C85.6278 77.51 87.8945 74.3178 89.5378 70.6344C91.1811 66.9511 92.0122 62.9278 92.0122 58.5644C92.0122 54.2011 91.1811 50.1778 89.5378 46.4944C87.8945 42.8111 85.6278 39.6189 82.7756 36.8989C79.9233 34.1789 76.6178 32.0822 72.8967 30.5711C69.1567 29.0789 65.2089 28.3233 61.0533 28.3233C56.8789 28.3233 52.9311 29.0789 49.21 30.5711C45.47 32.0822 42.2022 34.1789 39.4067 36.8989C36.5922 39.6189 34.3633 42.8111 32.72 46.4944C31.0578 50.1778 30.2456 54.2011 30.2456 58.5644Z" fill="url(#paint0_linear_1517_12)"/>
<defs>
<linearGradient id="paint0_linear_1517_12" x1="61.1308" y1="0.708519" x2="61.1308" y2="116.421" gradientUnits="userSpaceOnUse">
<stop stop-color="#FF5110"/>
<stop offset="1" stop-color="#ED1C24"/>
</linearGradient>
</defs>
</svg>
